<svg width="22" height="18" xmlns="http://www.w3.org/2000/svg" xmlns:xlink="http://www.w3.org/1999/xlink" overflow="hidden"><defs><clipPath id="clip0"><rect x="97" y="56" width="22" height="18"/></clipPath></defs><g clip-path="url(#clip0)" transform="translate(-97 -56)"><path d="M116 57 100 57C98.89 57 98.01 57.89 98.01 59L98 71C98 72.11 98.89 73 100 73L116 73C117.11 73 118 72.11 118 71L118 59C118 57.89 117.11 57 116 57ZM104.5 67.21C104.5 67.64 104.14 68 103.71 68 103.46 68 103.22 67.88 103.07 67.67L100.75 64.5001 100.75 67.3801C100.75 67.73 100.47 68 100.13 68 99.79 68 99.5001 67.72 99.5001 67.3801L99.5001 62.79C99.5001 62.36 99.8599 62 100.29 62L100.34 62C100.6 62 100.84 62.12 100.99 62.33L103.25 65.5001 103.25 62.6201C103.25 62.28 103.53 62 103.88 62 104.23 62 104.5 62.28 104.5 62.6201L104.5 67.21ZM109.5 62.64C109.5 62.99 109.22 63.2601 108.88 63.2601L107 63.2601 107 64.3801 108.88 64.3801C109.23 64.3801 109.5 64.66 109.5 65L109.5 65.01C109.5 65.36 109.22 65.63 108.88 65.63L107 65.63 107 66.7401 108.88 66.7401C109.23 66.7401 109.5 67.0201 109.5 67.36 109.5 67.71 109.22 67.9799 108.88 67.9799L106.35 67.9799C105.88 67.9799 105.5 67.6 105.5 67.13L105.5 62.83C105.5 62.3801 105.88 62 106.35 62L108.88 62C109.23 62 109.5 62.28 109.5 62.6201L109.5 62.64ZM116.5 67C116.5 67.55 116.05 68 115.5 68L111.5 68C110.95 68 110.5 67.55 110.5 67L110.5 62.6201C110.5 62.28 110.78 62 111.12 62 111.46 62 111.74 62.28 111.74 62.6201L111.74 66.51 112.87 66.51 112.87 63.61C112.87 63.2601 113.15 62.99 113.49 62.99 113.83 62.99 114.11 63.27 114.11 63.61L114.11 66.5001 115.23 66.5001 115.23 62.6201C115.23 62.27 115.51 62 115.85 62 116.19 62 116.47 62.28 116.47 62.6201L116.47 67Z" fill="#DF1313" fill-rule="evenodd" fill-opacity="0.501961"/></g></svg>